<svg xmlns="http://www.w3.org/2000/svg" viewBox="0 0 293 174" width="293" height="174" role="img" aria-label="Eventory">
  <title>Eventory</title>
  <g transform="translate(82.5 -12)">
    <path fill="#E8F2FB" d="M16 12h21v104h-21z"/>
    <path fill="#E8F2FB" fill-rule="evenodd" d="M37 12h75v27h-75z M57 22.5h35v6h-35z"/>
    <path fill="#64D2FF"   fill-rule="evenodd" d="M37 50.5h75v27h-75z M57 61h35v6h-35z"/>
    <path fill="#E8F2FB" fill-rule="evenodd" d="M37 89h75v27h-75z M57 99.5h35v6h-35z"/>
  </g>
  <g transform="translate(0 132) scale(0.42)">
  <g fill="none" stroke="#E8F2FB" stroke-width="13" stroke-linecap="butt" stroke-linejoin="miter" stroke-miterlimit="4">
    <path transform="translate(0 0)" d="M61.5 6.5H6.5V93.5H61.5M6.5 50H52"/>
    <path transform="translate(90 0)" d="M6.5 6.5L34 93.5L61.5 6.5"/>
    <path transform="translate(180 0)" d="M61.5 6.5H6.5V93.5H61.5M6.5 50H52"/>
    <path transform="translate(270 0)" d="M6.5 93.5V6.5L61.5 93.5V6.5"/>
    <path transform="translate(360 0)" d="M6.5 6.5H61.5M34 6.5V93.5"/>
    <path transform="translate(450 0)" d="M6.5 26.5A20 20 0 0 1 26.5 6.5H41.5A20 20 0 0 1 61.5 26.5V73.5A20 20 0 0 1 41.5 93.5H26.5A20 20 0 0 1 6.5 73.5Z"/>
    <path transform="translate(540 0)" d="M6.5 93.5V6.5H40A21 21.5 0 0 1 40 49.5H6.5M30 49.5L61.5 93.5"/>
    <path transform="translate(630 0)" d="M6.5 6.5L34 50L61.5 6.5M34 44V93.5"/>
  </g>
  </g>
</svg>
